<svg width="25" height="24" viewBox="0 0 25 24" fill="none" xmlns="http://www.w3.org/2000/svg">
<path d="M3.11111 3V2.25H2.36111V3H3.11111ZM20.8889 3H21.6389V2.25H20.8889V3ZM5.91256 11.4124C5.62053 11.7062 5.62192 12.181 5.91567 12.4731C6.20942 12.7651 6.68429 12.7637 6.97633 12.4699L5.91256 11.4124ZM9.77778 8.58824L10.3097 8.05946C10.1689 7.91786 9.97745 7.83824 9.77778 7.83824C9.5781 7.83824 9.38667 7.91786 9.24589 8.05946L9.77778 8.58824ZM13.1111 11.9412L12.5792 12.4699C12.72 12.6116 12.9114 12.6912 13.1111 12.6912C13.3108 12.6912 13.5022 12.6116 13.643 12.4699L13.1111 11.9412ZM18.0874 7.99936C18.3795 7.70561 18.3781 7.23074 18.0843 6.93871C17.7906 6.64667 17.3157 6.64806 17.0237 6.94182L18.0874 7.99936ZM7.02367 21.4712C6.73164 21.765 6.73303 22.2398 7.02678 22.5319C7.32053 22.8239 7.79541 22.8225 8.08744 22.5288L7.02367 21.4712ZM12 17.5294L12.5319 17.0006C12.3911 16.859 12.1997 16.7794 12 16.7794C11.8003 16.7794 11.6089 16.859 11.4681 17.0006L12 17.5294ZM15.9126 22.5288C16.2046 22.8225 16.6795 22.8239 16.9732 22.5319C17.267 22.2398 17.2684 21.765 16.9763 21.4712L15.9126 22.5288ZM2 2.25C1.58579 2.25 1.25 2.58579 1.25 3C1.25 3.41421 1.58579 3.75 2 3.75V2.25ZM22 3.75C22.4142 3.75 22.75 3.41421 22.75 3C22.75 2.58579 22.4142 2.25 22 2.25V3.75ZM3.11111 3.75H20.8889V2.25H3.11111V3.75ZM20.1389 3V16.4118H21.6389V3H20.1389ZM19.7778 16.7794H4.22222V18.2794H19.7778V16.7794ZM3.86111 16.4118V3H2.36111V16.4118H3.86111ZM4.22222 16.7794C4.02693 16.7794 3.86111 16.619 3.86111 16.4118H2.36111C2.36111 17.4391 3.19022 18.2794 4.22222 18.2794V16.7794ZM20.1389 16.4118C20.1389 16.619 19.9731 16.7794 19.7778 16.7794V18.2794C20.8098 18.2794 21.6389 17.4391 21.6389 16.4118H20.1389ZM6.97633 12.4699L10.3097 9.11701L9.24589 8.05946L5.91256 11.4124L6.97633 12.4699ZM9.24589 9.11701L12.5792 12.4699L13.643 11.4124L10.3097 8.05946L9.24589 9.11701ZM13.643 12.4699L18.0874 7.99936L17.0237 6.94182L12.5792 11.4124L13.643 12.4699ZM8.08744 22.5288L12.5319 18.0582L11.4681 17.0006L7.02367 21.4712L8.08744 22.5288ZM11.4681 18.0582L15.9126 22.5288L16.9763 21.4712L12.5319 17.0006L11.4681 18.0582ZM2 3.75H22V2.25H2V3.75Z" fill="#9E9E9E"/>
</svg>
