<svg width="24" height="24" viewBox="0 0 24 24" fill="none" xmlns="http://www.w3.org/2000/svg">
<path fill-rule="evenodd" clip-rule="evenodd" d="M3.5999 3.60001C2.93716 3.60001 2.3999 4.13726 2.3999 4.80001C2.3999 5.46275 2.93716 6.00001 3.5999 6.00001V15.6C3.5999 16.9255 4.67442 18 5.9999 18H9.10285L7.55137 19.5515C7.08274 20.0201 7.08274 20.7799 7.55137 21.2485C8.02 21.7172 8.7798 21.7172 9.24843 21.2485L11.9999 18.4971L14.7514 21.2485C15.22 21.7172 15.9798 21.7172 16.4484 21.2485C16.9171 20.7799 16.9171 20.0201 16.4484 19.5515L14.897 18H17.9999C19.3254 18 20.3999 16.9255 20.3999 15.6V6.00001C21.0626 6.00001 21.5999 5.46275 21.5999 4.80001C21.5999 4.13726 21.0626 3.60001 20.3999 3.60001H3.5999ZM17.6484 9.24853C18.1171 8.77991 18.1171 8.02011 17.6484 7.55148C17.1798 7.08285 16.42 7.08285 15.9514 7.55148L11.9999 11.5029L10.4484 9.95148C9.9798 9.48285 9.22 9.48285 8.75137 9.95148L6.35137 12.3515C5.88274 12.8201 5.88274 13.5799 6.35137 14.0485C6.82 14.5172 7.5798 14.5172 8.04843 14.0485L9.5999 12.4971L11.1514 14.0485C11.62 14.5172 12.3798 14.5172 12.8484 14.0485L17.6484 9.24853Z" fill="#9E9E9E"/>
</svg>
