<svg width="24" height="24" viewBox="0 0 24 24" fill="none" xmlns="http://www.w3.org/2000/svg">
<path d="M4.7999 4.79999C3.47442 4.79999 2.3999 5.8745 2.3999 7.19999V8.39999H21.5999V7.19999C21.5999 5.8745 20.5254 4.79999 19.1999 4.79999H4.7999Z" fill="#9E9E9E"/>
<path fill-rule="evenodd" clip-rule="evenodd" d="M21.5999 10.8H2.3999V16.8C2.3999 18.1255 3.47442 19.2 4.7999 19.2H19.1999C20.5254 19.2 21.5999 18.1255 21.5999 16.8V10.8ZM4.7999 15.6C4.7999 14.9372 5.33716 14.4 5.9999 14.4H7.1999C7.86264 14.4 8.3999 14.9372 8.3999 15.6C8.3999 16.2627 7.86264 16.8 7.1999 16.8H5.9999C5.33716 16.8 4.7999 16.2627 4.7999 15.6ZM10.7999 14.4C10.1372 14.4 9.5999 14.9372 9.5999 15.6C9.5999 16.2627 10.1372 16.8 10.7999 16.8H11.9999C12.6626 16.8 13.1999 16.2627 13.1999 15.6C13.1999 14.9372 12.6626 14.4 11.9999 14.4H10.7999Z" fill="#9E9E9E"/>
</svg>
